<svg width="113" height="17" viewBox="0 0 113 17" fill="none" xmlns="http://www.w3.org/2000/svg">
<path d="M2.23 13V8.087C2.23 7.033 2.893 6.251 3.947 6.251C5.069 6.251 5.545 6.999 5.545 7.951V13H7.483V8.087C7.483 7.067 8.163 6.251 9.2 6.251C10.305 6.251 10.798 6.982 10.798 7.951V13H12.702V7.628C12.702 5.435 11.274 4.483 9.778 4.483C8.707 4.483 7.738 4.857 7.092 5.945C6.65 4.976 5.698 4.483 4.61 4.483C3.675 4.483 2.638 4.925 2.162 5.775V4.721H0.275V13H2.23ZM14.6068 10.756C14.6068 12.065 15.6778 13.255 17.4118 13.255C18.7548 13.255 19.5708 12.575 19.9618 11.946C19.9618 12.609 20.0298 12.949 20.0468 13H21.8828C21.8658 12.915 21.7808 12.422 21.7808 11.674V7.56C21.7808 5.911 20.8118 4.466 18.2618 4.466C16.2218 4.466 14.9298 5.741 14.7768 7.169L16.5788 7.577C16.6638 6.744 17.2418 6.081 18.2788 6.081C19.3668 6.081 19.8428 6.642 19.8428 7.339C19.8428 7.628 19.7068 7.866 19.2308 7.934L17.1058 8.257C15.6948 8.461 14.6068 9.277 14.6068 10.756ZM17.7858 11.708C17.0038 11.708 16.5788 11.198 16.5788 10.637C16.5788 9.957 17.0718 9.617 17.6838 9.515L19.8428 9.192V9.566C19.8428 11.181 18.8908 11.708 17.7858 11.708ZM26.1366 8.223C26.1366 7.135 26.7316 6.268 27.8536 6.268C29.0946 6.268 29.5536 7.084 29.5536 8.104V13H31.5256V7.764C31.5256 5.945 30.5566 4.483 28.5336 4.483C27.6156 4.483 26.6296 4.874 26.0856 5.826V4.721H24.1646V13H26.1366V8.223ZM39.1992 12.082C39.1992 12.422 39.2332 12.813 39.2672 13H41.1542C41.1202 12.694 41.0692 12.167 41.0692 11.487V4.721H39.0972V9.617C39.0972 10.705 38.5022 11.47 37.3632 11.47C36.1732 11.47 35.6972 10.603 35.6972 9.583V4.721H33.7252V9.94C33.7252 11.776 34.8812 13.238 36.8532 13.238C37.8222 13.238 38.7912 12.83 39.1992 12.082ZM47.3269 2.375C47.7009 2.375 47.9219 2.426 48.0409 2.46V0.776999C47.9049 0.708999 47.4969 0.606999 47.0039 0.606999C45.3039 0.606999 44.1139 1.729 44.1139 3.582V4.721H42.6689V6.438H44.1139V13H46.1029V6.438H48.0239V4.721H46.1029V3.633C46.1029 2.613 46.7999 2.375 47.3269 2.375ZM48.9222 10.756C48.9222 12.065 49.9932 13.255 51.7272 13.255C53.0702 13.255 53.8862 12.575 54.2772 11.946C54.2772 12.609 54.3452 12.949 54.3622 13H56.1982C56.1812 12.915 56.0962 12.422 56.0962 11.674V7.56C56.0962 5.911 55.1272 4.466 52.5772 4.466C50.5372 4.466 49.2452 5.741 49.0922 7.169L50.8942 7.577C50.9792 6.744 51.5572 6.081 52.5942 6.081C53.6822 6.081 54.1582 6.642 54.1582 7.339C54.1582 7.628 54.0222 7.866 53.5462 7.934L51.4212 8.257C50.0102 8.461 48.9222 9.277 48.9222 10.756ZM52.1012 11.708C51.3192 11.708 50.8942 11.198 50.8942 10.637C50.8942 9.957 51.3872 9.617 51.9992 9.515L54.1582 9.192V9.566C54.1582 11.181 53.2062 11.708 52.1012 11.708ZM62.0675 6.285C63.3255 6.285 63.8865 7.101 64.0735 7.832L65.8415 7.186C65.5015 5.86 64.2775 4.466 62.0505 4.466C59.6705 4.466 57.8175 6.302 57.8175 8.852C57.8175 11.368 59.6705 13.255 62.1015 13.255C64.2775 13.255 65.5185 11.844 65.9095 10.552L64.1755 9.923C63.9885 10.552 63.3935 11.453 62.1015 11.453C60.8605 11.453 59.7895 10.518 59.7895 8.852C59.7895 7.186 60.8605 6.285 62.0675 6.285ZM70.1597 2.188H68.3747V3.429C68.3747 4.16 67.9837 4.721 67.0997 4.721H66.6747V6.472H68.2047V10.637C68.2047 12.184 69.1567 13.102 70.6867 13.102C71.4007 13.102 71.7747 12.966 71.8937 12.915V11.283C71.8087 11.3 71.4857 11.351 71.2137 11.351C70.4827 11.351 70.1597 11.045 70.1597 10.314V6.472H71.8767V4.721H70.1597V2.188ZM79.3085 12.082C79.3085 12.422 79.3425 12.813 79.3765 13H81.2635C81.2295 12.694 81.1785 12.167 81.1785 11.487V4.721H79.2065V9.617C79.2065 10.705 78.6115 11.47 77.4725 11.47C76.2825 11.47 75.8065 10.603 75.8065 9.583V4.721H73.8345V9.94C73.8345 11.776 74.9905 13.238 76.9625 13.238C77.9315 13.238 78.9005 12.83 79.3085 12.082ZM88.5761 4.67C88.4911 4.653 88.2871 4.619 88.0491 4.619C86.9611 4.619 86.0431 5.146 85.6521 6.047V4.721H83.7311V13H85.7031V9.056C85.7031 7.509 86.4001 6.625 87.9301 6.625C88.1341 6.625 88.3551 6.642 88.5761 6.676V4.67ZM92.1773 13V4.721H90.2223V13H92.1773ZM89.9163 1.814C89.9163 2.528 90.4943 3.089 91.1913 3.089C91.9053 3.089 92.4833 2.528 92.4833 1.814C92.4833 1.1 91.9053 0.522 91.1913 0.522C90.4943 0.522 89.9163 1.1 89.9163 1.814ZM96.6933 8.223C96.6933 7.135 97.2883 6.268 98.4103 6.268C99.6513 6.268 100.11 7.084 100.11 8.104V13H102.082V7.764C102.082 5.945 101.113 4.483 99.0903 4.483C98.1723 4.483 97.1863 4.874 96.6423 5.826V4.721H94.7213V13H96.6933V8.223ZM103.888 13.459C104.109 15.125 105.639 16.485 107.832 16.485C110.943 16.485 112.082 14.428 112.082 12.218V4.721H110.178V5.775C109.821 5.095 109.022 4.568 107.73 4.568C105.452 4.568 103.905 6.387 103.905 8.597C103.905 10.926 105.52 12.626 107.73 12.626C108.937 12.626 109.77 12.065 110.127 11.419V12.286C110.127 13.969 109.345 14.768 107.781 14.768C106.642 14.768 105.843 14.003 105.707 12.983L103.888 13.459ZM108.053 10.943C106.761 10.943 105.894 10.042 105.894 8.597C105.894 7.186 106.795 6.268 108.053 6.268C109.277 6.268 110.178 7.186 110.178 8.597C110.178 10.025 109.311 10.943 108.053 10.943Z" fill="black"/>
</svg>
