<svg width="79" height="17" viewBox="0 0 79 17" fill="none" xmlns="http://www.w3.org/2000/svg">
<path d="M2.23 16.23V12.065C2.655 12.694 3.556 13.204 4.746 13.204C7.126 13.204 8.639 11.334 8.639 8.852C8.639 6.404 7.262 4.534 4.814 4.534C3.539 4.534 2.587 5.129 2.179 5.843V4.721H0.275V16.23H2.23ZM6.667 8.852C6.667 10.433 5.749 11.453 4.44 11.453C3.148 11.453 2.213 10.433 2.213 8.852C2.213 7.305 3.148 6.285 4.44 6.285C5.766 6.285 6.667 7.305 6.667 8.852ZM10.0248 10.756C10.0248 12.065 11.0958 13.255 12.8298 13.255C14.1728 13.255 14.9888 12.575 15.3798 11.946C15.3798 12.609 15.4478 12.949 15.4648 13H17.3008C17.2838 12.915 17.1988 12.422 17.1988 11.674V7.56C17.1988 5.911 16.2298 4.466 13.6798 4.466C11.6398 4.466 10.3478 5.741 10.1948 7.169L11.9968 7.577C12.0818 6.744 12.6598 6.081 13.6968 6.081C14.7848 6.081 15.2608 6.642 15.2608 7.339C15.2608 7.628 15.1248 7.866 14.6488 7.934L12.5238 8.257C11.1128 8.461 10.0248 9.277 10.0248 10.756ZM13.2038 11.708C12.4218 11.708 11.9968 11.198 11.9968 10.637C11.9968 9.957 12.4898 9.617 13.1018 9.515L15.2608 9.192V9.566C15.2608 11.181 14.3088 11.708 13.2038 11.708ZM23.17 6.285C24.428 6.285 24.989 7.101 25.176 7.832L26.944 7.186C26.604 5.86 25.38 4.466 23.153 4.466C20.773 4.466 18.92 6.302 18.92 8.852C18.92 11.368 20.773 13.255 23.204 13.255C25.38 13.255 26.621 11.844 27.012 10.552L25.278 9.923C25.091 10.552 24.496 11.453 23.204 11.453C21.963 11.453 20.892 10.518 20.892 8.852C20.892 7.186 21.963 6.285 23.17 6.285ZM36.5153 4.721H33.8973L30.7183 8.07V0.691999H28.7633V13H30.7183V10.688L31.7383 9.617L34.1693 13H36.5833L33.1153 8.223L36.5153 4.721ZM37.2845 10.756C37.2845 12.065 38.3555 13.255 40.0895 13.255C41.4325 13.255 42.2485 12.575 42.6395 11.946C42.6395 12.609 42.7075 12.949 42.7245 13H44.5605C44.5435 12.915 44.4585 12.422 44.4585 11.674V7.56C44.4585 5.911 43.4895 4.466 40.9395 4.466C38.8995 4.466 37.6075 5.741 37.4545 7.169L39.2565 7.577C39.3415 6.744 39.9195 6.081 40.9565 6.081C42.0445 6.081 42.5205 6.642 42.5205 7.339C42.5205 7.628 42.3845 7.866 41.9085 7.934L39.7835 8.257C38.3725 8.461 37.2845 9.277 37.2845 10.756ZM40.4635 11.708C39.6815 11.708 39.2565 11.198 39.2565 10.637C39.2565 9.957 39.7495 9.617 40.3615 9.515L42.5205 9.192V9.566C42.5205 11.181 41.5685 11.708 40.4635 11.708ZM46.2308 13.459C46.4518 15.125 47.9818 16.485 50.1748 16.485C53.2858 16.485 54.4248 14.428 54.4248 12.218V4.721H52.5208V5.775C52.1638 5.095 51.3648 4.568 50.0728 4.568C47.7948 4.568 46.2478 6.387 46.2478 8.597C46.2478 10.926 47.8628 12.626 50.0728 12.626C51.2798 12.626 52.1128 12.065 52.4698 11.419V12.286C52.4698 13.969 51.6878 14.768 50.1238 14.768C48.9848 14.768 48.1858 14.003 48.0498 12.983L46.2308 13.459ZM50.3958 10.943C49.1038 10.943 48.2368 10.042 48.2368 8.597C48.2368 7.186 49.1378 6.268 50.3958 6.268C51.6198 6.268 52.5208 7.186 52.5208 8.597C52.5208 10.025 51.6538 10.943 50.3958 10.943ZM58.7915 13V4.721H56.8365V13H58.7915ZM56.5305 1.814C56.5305 2.528 57.1085 3.089 57.8055 3.089C58.5195 3.089 59.0975 2.528 59.0975 1.814C59.0975 1.1 58.5195 0.522 57.8055 0.522C57.1085 0.522 56.5305 1.1 56.5305 1.814ZM63.3075 8.223C63.3075 7.135 63.9025 6.268 65.0245 6.268C66.2655 6.268 66.7245 7.084 66.7245 8.104V13H68.6965V7.764C68.6965 5.945 67.7275 4.483 65.7045 4.483C64.7865 4.483 63.8005 4.874 63.2565 5.826V4.721H61.3355V13H63.3075V8.223ZM70.5023 13.459C70.7233 15.125 72.2533 16.485 74.4463 16.485C77.5573 16.485 78.6963 14.428 78.6963 12.218V4.721H76.7923V5.775C76.4353 5.095 75.6363 4.568 74.3443 4.568C72.0663 4.568 70.5193 6.387 70.5193 8.597C70.5193 10.926 72.1343 12.626 74.3443 12.626C75.5513 12.626 76.3843 12.065 76.7413 11.419V12.286C76.7413 13.969 75.9593 14.768 74.3953 14.768C73.2563 14.768 72.4573 14.003 72.3213 12.983L70.5023 13.459ZM74.6673 10.943C73.3753 10.943 72.5083 10.042 72.5083 8.597C72.5083 7.186 73.4093 6.268 74.6673 6.268C75.8913 6.268 76.7923 7.186 76.7923 8.597C76.7923 10.025 75.9253 10.943 74.6673 10.943Z" fill="black"/>
</svg>
