<svg width="72" height="31" viewBox="0 0 72 31" fill="none" xmlns="http://www.w3.org/2000/svg">
<path d="M3.23 20.23V16.065C3.655 16.694 4.556 17.204 5.746 17.204C8.126 17.204 9.639 15.334 9.639 12.852C9.639 10.404 8.262 8.534 5.814 8.534C4.539 8.534 3.587 9.129 3.179 9.843V8.721H1.275V20.23H3.23ZM7.667 12.852C7.667 14.433 6.749 15.453 5.44 15.453C4.148 15.453 3.213 14.433 3.213 12.852C3.213 11.305 4.148 10.285 5.44 10.285C6.766 10.285 7.667 11.305 7.667 12.852ZM16.3798 8.67C16.2948 8.653 16.0908 8.619 15.8528 8.619C14.7648 8.619 13.8468 9.146 13.4558 10.047V8.721H11.5348V17H13.5068V13.056C13.5068 11.509 14.2038 10.625 15.7338 10.625C15.9378 10.625 16.1588 10.642 16.3798 10.676V8.67ZM21.581 15.487C20.374 15.487 19.269 14.569 19.269 12.852C19.269 11.135 20.374 10.251 21.581 10.251C22.805 10.251 23.893 11.135 23.893 12.852C23.893 14.586 22.805 15.487 21.581 15.487ZM21.581 8.466C19.116 8.466 17.297 10.319 17.297 12.852C17.297 15.402 19.116 17.255 21.581 17.255C24.063 17.255 25.882 15.402 25.882 12.852C25.882 10.319 24.063 8.466 21.581 8.466ZM29.1137 12.835C29.1137 11.254 30.0657 10.251 31.3577 10.251C32.6497 10.251 33.5337 11.237 33.5337 12.818C33.5337 14.399 32.6327 15.47 31.3407 15.47C29.9977 15.47 29.1137 14.416 29.1137 12.835ZM35.4377 4.692H33.5167V9.69C33.2617 9.163 32.5307 8.5 31.0857 8.5C28.7567 8.5 27.1417 10.455 27.1417 12.835C27.1417 15.334 28.7397 17.204 31.1197 17.204C32.2927 17.204 33.1597 16.626 33.5507 15.929C33.5507 16.269 33.6017 16.813 33.6357 17H35.5227C35.5057 16.864 35.4377 16.235 35.4377 15.487V4.692ZM43.3535 16.082C43.3535 16.422 43.3875 16.813 43.4215 17H45.3085C45.2745 16.694 45.2235 16.167 45.2235 15.487V8.721H43.2515V13.617C43.2515 14.705 42.6565 15.47 41.5175 15.47C40.3275 15.47 39.8515 14.603 39.8515 13.583V8.721H37.8795V13.94C37.8795 15.776 39.0355 17.238 41.0075 17.238C41.9765 17.238 42.9455 16.83 43.3535 16.082ZM51.3302 10.285C52.5882 10.285 53.1492 11.101 53.3362 11.832L55.1042 11.186C54.7642 9.86 53.5402 8.466 51.3132 8.466C48.9332 8.466 47.0802 10.302 47.0802 12.852C47.0802 15.368 48.9332 17.255 51.3642 17.255C53.5402 17.255 54.7812 15.844 55.1722 14.552L53.4382 13.923C53.2512 14.552 52.6562 15.453 51.3642 15.453C50.1232 15.453 49.0522 14.518 49.0522 12.852C49.0522 11.186 50.1232 10.285 51.3302 10.285ZM59.4224 6.188H57.6374V7.429C57.6374 8.16 57.2464 8.721 56.3624 8.721H55.9374V10.472H57.4674V14.637C57.4674 16.184 58.4194 17.102 59.9494 17.102C60.6634 17.102 61.0374 16.966 61.1564 16.915V15.283C61.0714 15.3 60.7484 15.351 60.4764 15.351C59.7454 15.351 59.4224 15.045 59.4224 14.314V10.472H61.1394V8.721H59.4224V6.188ZM62.5674 14.756C62.6694 15.691 63.5874 17.255 65.9844 17.255C68.0924 17.255 69.1124 15.861 69.1124 14.603C69.1124 13.379 68.2964 12.427 66.7324 12.087L65.4744 11.832C64.9644 11.73 64.6414 11.407 64.6414 10.965C64.6414 10.455 65.1344 10.013 65.8314 10.013C66.9364 10.013 67.2934 10.778 67.3614 11.254L69.0274 10.778C68.8914 9.962 68.1434 8.466 65.8314 8.466C64.1144 8.466 62.7884 9.69 62.7884 11.135C62.7884 12.274 63.5534 13.226 65.0154 13.549L66.2394 13.821C66.9024 13.957 67.2084 14.297 67.2084 14.739C67.2084 15.249 66.7834 15.691 65.9674 15.691C64.9134 15.691 64.3524 15.028 64.2844 14.28L62.5674 14.756Z" fill="black"/>
<rect y="29" width="72" height="2" fill="black"/>
</svg>
