<svg width="40" height="15" viewBox="0 0 40 15" fill="none" xmlns="http://www.w3.org/2000/svg">
<path d="M0.544 8.756C0.646 9.691 1.564 11.255 3.961 11.255C6.069 11.255 7.089 9.861 7.089 8.603C7.089 7.379 6.273 6.427 4.709 6.087L3.451 5.832C2.941 5.73 2.618 5.407 2.618 4.965C2.618 4.455 3.111 4.013 3.808 4.013C4.913 4.013 5.27 4.778 5.338 5.254L7.004 4.778C6.868 3.962 6.12 2.466 3.808 2.466C2.091 2.466 0.765 3.69 0.765 5.135C0.765 6.274 1.53 7.226 2.992 7.549L4.216 7.821C4.879 7.957 5.185 8.297 5.185 8.739C5.185 9.249 4.76 9.691 3.944 9.691C2.89 9.691 2.329 9.028 2.261 8.28L0.544 8.756ZM11.5435 0.187999H9.75853V1.429C9.75853 2.16 9.36753 2.721 8.48353 2.721H8.05853V4.472H9.58853V8.637C9.58853 10.184 10.5405 11.102 12.0705 11.102C12.7845 11.102 13.1585 10.966 13.2775 10.915V9.283C13.1925 9.3 12.8695 9.351 12.5975 9.351C11.8665 9.351 11.5435 9.045 11.5435 8.314V4.472H13.2605V2.721H11.5435V0.187999ZM18.8417 9.487C17.6347 9.487 16.5297 8.569 16.5297 6.852C16.5297 5.135 17.6347 4.251 18.8417 4.251C20.0657 4.251 21.1537 5.135 21.1537 6.852C21.1537 8.586 20.0657 9.487 18.8417 9.487ZM18.8417 2.466C16.3767 2.466 14.5577 4.319 14.5577 6.852C14.5577 9.402 16.3767 11.255 18.8417 11.255C21.3237 11.255 23.1427 9.402 23.1427 6.852C23.1427 4.319 21.3237 2.466 18.8417 2.466ZM29.8934 2.67C29.8084 2.653 29.6044 2.619 29.3664 2.619C28.2784 2.619 27.3604 3.146 26.9694 4.047V2.721H25.0484V11H27.0204V7.056C27.0204 5.509 27.7174 4.625 29.2474 4.625C29.4514 4.625 29.6724 4.642 29.8934 4.676V2.67ZM34.3545 14.349L39.6245 2.721H37.5335L35.3065 7.957L32.9265 2.721H30.6995L34.2355 10.014L32.2465 14.349H34.3545Z" fill="black"/>
</svg>
