<svg width="103" height="29" viewBox="0 0 103 29" fill="none" xmlns="http://www.w3.org/2000/svg">
<path d="M4.69 13.69H12.4V9.94H4.69V5.02H13.48V1.33H0.52V22H13.75V18.31H4.69V13.69ZM25.2466 14.41L29.8666 7.99H25.2466L23.0866 11.23L20.8666 7.99H16.2166L20.8366 14.41L15.2866 22H19.9066L23.0566 17.53L26.1466 22H30.7366L25.2466 14.41ZM41.2225 7.63C39.6325 7.63 37.7125 8.29 36.7225 9.7V7.99H32.7925V28.87H36.7225V20.26C37.7125 21.7 39.6325 22.36 41.2225 22.36C44.8225 22.36 48.0925 19.51 48.0925 14.98C48.0925 10.51 44.8225 7.63 41.2225 7.63ZM40.4725 18.7C38.6425 18.7 36.8425 17.14 36.8425 15.01C36.8425 12.88 38.5525 11.29 40.4725 11.29C42.4525 11.29 44.0725 12.94 44.0725 15.01C44.0725 17.08 42.4525 18.7 40.4725 18.7ZM55.1502 22V0.37H51.2202V22H55.1502ZM65.7611 22.36C69.7511 22.36 73.2911 19.42 73.2911 15.01C73.2911 10.57 69.7511 7.63 65.7611 7.63C61.7711 7.63 58.2311 10.57 58.2311 15.01C58.2311 19.42 61.7711 22.36 65.7611 22.36ZM65.7611 18.7C63.8111 18.7 62.2211 17.17 62.2211 15.01C62.2211 12.82 63.8111 11.29 65.7611 11.29C67.7111 11.29 69.3011 12.82 69.3011 15.01C69.3011 17.17 67.7111 18.7 65.7611 18.7ZM84.3963 7.63C82.6563 7.63 81.0663 8.65 80.2863 10.99V7.99H76.3862V22H80.3163V17.2C80.3163 13.21 81.6963 11.32 83.7063 11.32C84.1863 11.32 84.8763 11.38 85.7163 11.83L86.6163 8.08C85.9863 7.75 85.1463 7.63 84.3963 7.63ZM102.2 14.77C102.2 10.48 98.9301 7.63 94.9101 7.63C90.9201 7.63 87.4701 10.48 87.4701 15.01C87.4701 19.33 90.6201 22.36 94.9401 22.36C97.4001 22.36 99.8301 21.31 101.15 19.54L98.8701 17.23C98.0001 18.22 96.6201 18.88 95.1801 18.88C93.3201 18.88 92.0001 17.92 91.5801 16.27H102.11C102.17 15.64 102.2 15.16 102.2 14.77ZM91.5801 13.72C92.0001 11.83 93.3801 11.02 95.0001 11.02C96.7701 11.02 98.1201 12.07 98.2401 13.72H91.5801Z" fill="black"/>
</svg>
